<svg width="25" height="25" viewBox="0 0 25 25" fill="none" xmlns="http://www.w3.org/2000/svg">
<path d="M13.7836 11.4945C12.0036 10.9045 11.1436 10.5345 11.1436 9.59453C11.1436 8.57453 12.2536 8.20453 12.9536 8.20453C14.2636 8.20453 14.7436 9.19453 14.8536 9.54453L16.4336 8.87453C16.2836 8.42453 15.6136 6.95453 13.8936 6.63453V5.39453H11.8936V6.65453C9.41355 7.21453 9.40355 9.51453 9.40355 9.61453C9.40355 11.8845 11.6536 12.5245 12.7536 12.9245C14.3336 13.4845 15.0336 13.9945 15.0336 14.9545C15.0336 16.0845 13.9836 16.5645 13.0536 16.5645C11.2336 16.5645 10.7136 14.6945 10.6536 14.4745L8.99356 15.1445C9.62356 17.3345 11.2736 17.9245 11.8936 18.1045V19.3945H13.8936V18.1545C14.2936 18.0645 16.7936 17.5645 16.7936 14.9345C16.7936 13.5445 16.1836 12.3245 13.7836 11.4945ZM3.89355 21.3945H1.89355V15.3945H7.89355V17.3945H5.41355C7.02355 19.8045 9.77355 21.3945 12.8936 21.3945C17.8636 21.3945 21.8936 17.3645 21.8936 12.3945H23.8936C23.8936 18.4745 18.9736 23.3945 12.8936 23.3945C9.17355 23.3945 5.88355 21.5445 3.89355 18.7245V21.3945ZM1.89355 12.3945C1.89355 6.31453 6.81355 1.39453 12.8936 1.39453C16.6136 1.39453 19.9036 3.24453 21.8936 6.06453V3.39453H23.8936V9.39453H17.8936V7.39453H20.3736C18.7636 4.98453 16.0136 3.39453 12.8936 3.39453C7.92355 3.39453 3.89355 7.42453 3.89355 12.3945H1.89355Z" fill="black"/>
</svg>
